<svg xmlns="http://www.w3.org/2000/svg" viewBox="0 0 64 64" role="img" aria-label="Google">
  <defs>
    <clipPath id="gClip">
      <circle cx="32" cy="32" r="28"/>
    </clipPath>
  </defs>
  <circle cx="32" cy="32" r="28" fill="#fff"/>
  <g clip-path="url(#gClip)">
    <path fill="#4285F4" d="M32 10a22 22 0 1 0 0 44c7.17 0 12.78-2.29 17.02-6.22l-8.19-7.48c-2.26 1.5-5.12 2.39-8.83 2.39-6.77 0-12.51-4.56-14.57-10.72H31V21.1H8.69A24 24 0 0 0 8 28c0 13.25 10.75 24 24 24 6.84 0 12.9-2.24 17.26-6.02 4.69-4.1 7.39-10.16 7.39-17.31 0-2.06-.18-3.7-.58-5.46H32v10.06h14.31c-.6 3.08-2.16 5.49-4.46 7.17l8.11 7.41C53.97 43.28 56 37.64 56 31.5 56 18.99 45.84 10 32 10z"/>
    <path fill="#34A853" d="M8 28a24 24 0 0 0 0 8h14.7c-.69-2.05-1.08-4.23-1.08-6.5 0-1.21.12-2.39.35-3.5H8z"/>
    <path fill="#FBBC05" d="M32 56c6.84 0 12.9-2.24 17.26-6.02l-8.19-7.48C38.9 44.07 35.9 45 32 45c-5.78 0-10.66-3.45-12.47-8.3L9.17 44.24C13.48 51.69 22.03 56 32 56z"/>
    <path fill="#EA4335" d="M19.53 36.7A14.1 14.1 0 0 1 18.7 32c0-1.6.28-3.14.83-4.5L9.17 19.76A23.95 23.95 0 0 0 8 28c0 2.88.51 5.64 1.45 8.24l10.08-9.54z"/>
  </g>
</svg>
